<svg width="427" height="427" viewBox="0 0 427 427" fill="none" xmlns="http://www.w3.org/2000/svg">
<path d="M377.254 255.141L372.279 244.859C372.305 244.468 372.325 244.077 372.325 243.685C372.325 232.029 360.176 221.286 339.735 212.686V274.686C349.273 270.672 357.01 266.193 362.544 261.371C360.915 267.904 355.345 281.122 350.904 290.417C343.605 303.711 338.558 314.956 341.301 315.857C343.036 316.747 344.007 312.386 347.679 306.176C356.224 294.029 372.416 270.838 375.652 264.931C379.318 258.235 377.254 255.141 377.254 255.141Z" fill="white" fill-opacity="0.6"/>
<path d="M55.3044 244.366C55.3044 246.611 55.757 248.822 56.6304 250.991L53.651 256.282C53.651 256.282 51.2643 259.371 55.4672 265.889C59.1744 271.635 77.7436 294.131 87.5443 305.911C91.7542 311.951 92.5468 317.458 94.8583 315.312C97.1697 313.166 92.2412 303.402 83.8806 290.466C79.9794 283.518 75.3201 274.313 72.5237 267.513C80.3312 272.443 90.5462 276.915 102.683 280.764V207.969C73.4367 217.241 55.3044 230.122 55.3044 244.366Z" fill="white" fill-opacity="0.6"/>
<path d="M160.766 300.068C160.184 299.572 159.879 299.278 159.879 299.278L209.778 295.2C169.074 241.629 136.466 284.304 132.995 289.075V300.068H160.766Z" fill="white" fill-opacity="0.6"/>
<path d="M264.663 299.491C265.245 298.995 265.551 298.7 265.551 298.7L217.597 295.199C258.32 239.429 288.965 283.726 292.435 288.497V299.491H264.663Z" fill="white" fill-opacity="0.6"/>
<path d="M341.303 246.305C341.303 246.305 335.877 267.955 301.922 290.726L292.474 292.966C292.474 292.966 261.869 237.281 218.469 299.539C218.29 299.755 218.241 299.891 218.259 299.993C218.283 300.037 218.523 300.265 218.766 300.049C221.319 298.855 235.355 293.192 268.06 301.831C268.06 301.831 251.316 327.402 217.641 326.562C217.641 326.562 249.913 365.29 299.115 309.39C299.115 309.39 351.124 289.326 355.334 246.305L341.303 246.305Z" fill="white"/>
<path d="M133.111 312.887C180.804 373.909 203.396 324.908 203.396 324.908C176.621 321.903 157.627 304.122 157.627 304.122C186.563 300.438 204.506 300.719 207.787 300.629C208.149 300.619 208.235 299.733 208.235 299.733C165.227 243.136 130.433 294.355 130.433 294.355C121.731 291.183 112.778 279.079 106.168 267.893L79.4763 260.046C110.184 312.136 133.111 312.887 133.111 312.887Z" fill="white"/>
<path d="M211.388 86.8984C213.254 87.0007 214.926 87.9143 215.877 89.6846L225.517 105.791C227.12 105.916 228.746 106.304 230.085 106.452L242.645 92.3838C244.109 90.9324 245.906 90.2463 247.795 90.6113C249.684 90.9764 251.139 92.4381 251.828 94.2314L258.183 112.213C259.809 112.601 261.171 113.012 262.534 113.423L277.477 102.324C278.964 101.136 281.071 100.952 282.743 101.865C284.392 102.516 285.847 103.978 286.032 106.08L289.01 124.885C290.396 125.558 291.804 126.495 293.19 127.169L309.75 119.371C311.523 118.422 313.389 118.525 315.084 119.701C316.516 120.9 317.468 122.671 317.367 124.533L316.922 143.637C318.091 144.859 319.237 145.818 320.382 146.777L338.295 142.304C340.115 141.881 342.027 142.509 343.482 143.971C344.651 145.193 345.099 147.272 344.734 149.157L340.535 167.793C341.44 169.038 342.609 170.26 343.514 171.505L362.037 170.951C363.88 170.791 365.552 171.704 366.48 173.212C367.694 174.959 367.879 177.061 366.964 178.729L359.491 196.327C360.133 197.595 360.798 199.126 361.44 200.394L379.758 203.564C381.647 203.929 383.08 205.128 383.768 206.922C384.456 208.715 384.377 210.841 383.176 212.27L372.598 227.754C372.714 229.068 373.07 230.096 373.425 231.124L406.035 255.026C406.035 255.026 411.051 257.767 406.021 266.943C401.688 275 378.324 308.015 365.778 325.26C360.701 333.91 359.885 339.699 356.919 338.692C353.954 337.685 357.215 324.416 367.035 306.351C374.121 290.376 382.884 266.31 379.517 264.221C379.49 264.197 369.711 255.545 353.548 258.54C212.457 327.458 60.2208 257.46 60.021 257.368C52.6324 260.654 49.0518 265.19 49.0366 265.209C46.085 267.849 59.5534 291.301 69.9136 306.551C83.3312 323.387 90.0065 336.001 86.5366 338.729C83.1739 341.374 81.3593 334.15 74.5649 326.269C58.3201 310.473 27.5712 280.583 21.6128 273.158C15.0128 264.466 19.4751 260.9 19.4751 260.9L50.063 228.579C50.0399 228.316 50.0172 228.053 50.2573 227.768L39.3472 212.302C38.4188 210.794 38.2346 208.691 38.8628 206.783C39.5142 205.138 40.9783 203.686 43.0845 203.503L61.1128 200.344C61.7872 198.961 62.4613 197.578 63.3989 196.173L55.7739 178.832C54.8224 177.061 55.164 174.913 56.0786 173.244C56.9933 171.576 58.7673 170.627 60.6333 170.729L79.271 171.489C80.2087 170.084 81.1696 168.941 82.1304 167.798L77.8354 149.107C77.4105 147.291 78.0157 145.12 79.2397 143.954C80.704 142.503 82.5004 141.817 84.4126 142.444L102.297 146.712C103.544 145.809 104.769 144.643 105.752 143.763L105.121 124.488C105.222 122.626 106.114 120.694 107.625 119.769C109.112 118.58 111.218 118.397 112.89 119.311L129.496 127.131C131.029 126.468 132.276 125.565 133.546 124.925L136.646 105.854C137.011 103.969 138.212 102.541 139.986 101.592C141.519 100.929 143.672 101.271 145.081 102.207L160.143 113.604C161.413 112.964 162.97 112.564 164.527 112.164L170.902 94.1328C171.553 92.4874 173.017 91.0356 174.837 90.6123C176.657 90.1891 178.57 90.8169 179.761 92.3018L192.398 106.294C193.978 106.156 195.558 106.018 197.137 105.881L206.857 89.6768C207.772 88.0084 209.522 86.7962 211.388 86.8984ZM164.965 204.188C151.555 204.188 140.684 215.059 140.684 228.47C140.684 241.88 151.555 252.751 164.965 252.751C178.376 252.751 189.247 241.88 189.248 228.47C189.248 215.059 178.376 204.188 164.965 204.188ZM262.092 204.188C248.682 204.188 237.811 215.059 237.811 228.469C237.811 241.879 248.682 252.751 262.092 252.751C275.503 252.751 286.375 241.879 286.375 228.469C286.374 215.058 275.503 204.188 262.092 204.188Z" fill="white"/>
<path d="M212.231 197.562C260.806 197.563 304.294 204.231 333.505 214.741V278.02C304.294 288.53 260.806 295.197 212.231 295.197C169.79 295.197 131.229 290.107 102.682 281.811V210.948C131.229 202.653 169.79 197.562 212.231 197.562ZM164.966 204.191C151.555 204.191 140.684 215.062 140.684 228.473C140.684 241.883 151.555 252.755 164.966 252.755C178.376 252.755 189.247 241.883 189.247 228.473C189.247 215.062 178.376 204.192 164.966 204.191ZM262.093 204.19C248.682 204.19 237.811 215.062 237.811 228.473C237.811 241.883 248.682 252.755 262.093 252.755C275.503 252.755 286.374 241.883 286.374 228.473C286.374 215.062 275.503 204.191 262.093 204.19Z" fill="white" fill-opacity="0.6"/>
</svg>
