<?xml version="1.0" encoding="utf-8"?>
 <!DOCTYPE svg PUBLIC "-//W3C//DTD SVG 20010904//EN" "http://www.w3.org/TR/2001/REC-SVG-20010904/DTD/svg10.dtd">
<svg xmlns="http://www.w3.org/2000/svg" xmlns:xlink="http://www.w3.org/1999/xlink" viewBox="-5.8 -5.8 40.6 40.6" class="w-full bg-white" url="https://github.com/moeru-ai" correct_level="medium" positioning_point_type="rounded" positioning_point_color="#ffffff" content_point_type="circle" content_point_scale="1" content_point_opacity="1" content_point_color="#ffffff"><circle opacity="1" r="0.505" fill="#ffffff" cx="8.5" cy="0.5"></circle><circle opacity="1" r="0.505" fill="#ffffff" cx="9.5" cy="0.5"></circle><circle opacity="1" r="0.505" fill="#ffffff" cx="11.5" cy="0.5"></circle><circle opacity="1" r="0.505" fill="#ffffff" cx="14.5" cy="0.5"></circle><circle opacity="1" r="0.505" fill="#ffffff" cx="18.5" cy="0.5"></circle><circle opacity="1" r="0.505" fill="#ffffff" cx="20.5" cy="0.5"></circle><circle opacity="1" r="0.505" fill="#ffffff" cx="9.5" cy="1.5"></circle><circle opacity="1" r="0.505" fill="#ffffff" cx="10.5" cy="1.5"></circle><circle opacity="1" r="0.505" fill="#ffffff" cx="11.5" cy="1.5"></circle><circle opacity="1" r="0.505" fill="#ffffff" cx="12.5" cy="1.5"></circle><circle opacity="1" r="0.505" fill="#ffffff" cx="19.5" cy="1.5"></circle><circle r="0.505" fill="#ffffff" cx="8.5" cy="2.5" opacity="1"></circle><circle opacity="1" r="0.505" fill="#ffffff" cx="9.5" cy="2.5"></circle><circle r="0.505" fill="#ffffff" cx="10.5" cy="2.5" opacity="1"></circle><circle opacity="1" r="0.505" fill="#ffffff" cx="11.5" cy="2.5"></circle><circle opacity="1" r="0.505" fill="#ffffff" cx="12.5" cy="2.5"></circle><circle opacity="1" r="0.505" fill="#ffffff" cx="13.5" cy="2.5"></circle><circle r="0.505" fill="#ffffff" cx="14.5" cy="2.5" opacity="1"></circle><circle opacity="1" r="0.505" fill="#ffffff" cx="15.5" cy="2.5"></circle><circle r="0.505" fill="#ffffff" cx="16.5" cy="2.5" opacity="1"></circle><circle opacity="1" r="0.505" fill="#ffffff" cx="17.5" cy="2.5"></circle><circle opacity="1" r="0.505" fill="#ffffff" cx="18.5" cy="2.5"></circle><circle r="0.505" fill="#ffffff" cx="19.5" cy="2.5" opacity="1"></circle><circle opacity="1" r="0.505" fill="#ffffff" cx="20.5" cy="2.5"></circle><circle fill="#ffffff" cx="3.5" cy="3.5" r="1.5"></circle><path d="M32.048565,-1.29480038e-15 L67.951435,1.29480038e-15 C79.0954192,-7.52316311e-16 83.1364972,1.16032014 87.2105713,3.3391588 C91.2846454,5.51799746 94.4820025,8.71535463 96.6608412,12.7894287 C98.8396799,16.8635028 100,20.9045808 100,32.048565 L100,67.951435 C100,79.0954192 98.8396799,83.1364972 96.6608412,87.2105713 C94.4820025,91.2846454 91.2846454,94.4820025 87.2105713,96.6608412 C83.1364972,98.8396799 79.0954192,100 67.951435,100 L32.048565,100 C20.9045808,100 16.8635028,98.8396799 12.7894287,96.6608412 C8.71535463,94.4820025 5.51799746,91.2846454 3.3391588,87.2105713 C1.16032014,83.1364972 5.01544207e-16,79.0954192 -8.63200256e-16,67.951435 L8.63200256e-16,32.048565 C-5.01544207e-16,20.9045808 1.16032014,16.8635028 3.3391588,12.7894287 C5.51799746,8.71535463 8.71535463,5.51799746 12.7894287,3.3391588 C16.8635028,1.16032014 20.9045808,7.52316311e-16 32.048565,-1.29480038e-15 Z" stroke="#ffffff" stroke-width="16.791666666666668" fill="none" transform="translate(0.5,0.5) scale(0.06,0.06)"></path><circle r="0.505" fill="#ffffff" cx="11.5" cy="3.5" opacity="1"></circle><circle opacity="1" r="0.505" fill="#ffffff" cx="14.5" cy="3.5"></circle><circle opacity="1" r="0.505" fill="#ffffff" cx="17.5" cy="3.5"></circle><circle opacity="1" r="0.505" fill="#ffffff" cx="18.5" cy="3.5"></circle><circle r="0.505" fill="#ffffff" cx="19.5" cy="3.5" opacity="1"></circle><circle r="1.5" fill="#ffffff" cx="25.5" cy="3.5"></circle><path d="M32.048565,-1.29480038e-15 L67.951435,1.29480038e-15 C79.0954192,-7.52316311e-16 83.1364972,1.16032014 87.2105713,3.3391588 C91.2846454,5.51799746 94.4820025,8.71535463 96.6608412,12.7894287 C98.8396799,16.8635028 100,20.9045808 100,32.048565 L100,67.951435 C100,79.0954192 98.8396799,83.1364972 96.6608412,87.2105713 C94.4820025,91.2846454 91.2846454,94.4820025 87.2105713,96.6608412 C83.1364972,98.8396799 79.0954192,100 67.951435,100 L32.048565,100 C20.9045808,100 16.8635028,98.8396799 12.7894287,96.6608412 C8.71535463,94.4820025 5.51799746,91.2846454 3.3391588,87.2105713 C1.16032014,83.1364972 5.01544207e-16,79.0954192 -8.63200256e-16,67.951435 L8.63200256e-16,32.048565 C-5.01544207e-16,20.9045808 1.16032014,16.8635028 3.3391588,12.7894287 C5.51799746,8.71535463 8.71535463,5.51799746 12.7894287,3.3391588 C16.8635028,1.16032014 20.9045808,7.52316311e-16 32.048565,-1.29480038e-15 Z" stroke="#ffffff" stroke-width="16.791666666666668" fill="none" transform="translate(22.5,0.5) scale(0.06,0.06)"></path><circle opacity="1" r="0.505" fill="#ffffff" cx="8.5" cy="4.5"></circle><circle r="0.505" fill="#ffffff" cx="9.5" cy="4.5" opacity="1"></circle><circle opacity="1" r="0.505" fill="#ffffff" cx="11.5" cy="4.5"></circle><circle opacity="1" r="0.505" fill="#ffffff" cx="15.5" cy="4.5"></circle><circle opacity="1" r="0.505" fill="#ffffff" cx="16.5" cy="4.5"></circle><circle opacity="1" r="0.505" fill="#ffffff" cx="17.5" cy="4.5"></circle><circle opacity="1" r="0.505" fill="#ffffff" cx="18.5" cy="4.5"></circle><circle opacity="1" r="0.505" fill="#ffffff" cx="19.5" cy="4.5"></circle><circle opacity="1" r="0.505" fill="#ffffff" cx="20.5" cy="4.5"></circle><circle opacity="1" r="0.505" fill="#ffffff" cx="9.5" cy="5.5"></circle><circle opacity="1" r="0.505" fill="#ffffff" cx="10.5" cy="5.5"></circle><circle opacity="1" r="0.505" fill="#ffffff" cx="18.5" cy="5.5"></circle><circle opacity="1" r="0.505" fill="#ffffff" cx="8.5" cy="6.5"></circle><circle opacity="1" r="0.505" fill="#ffffff" cx="10.5" cy="6.5"></circle><circle opacity="1" r="0.505" fill="#ffffff" cx="12.5" cy="6.5"></circle><circle opacity="1" r="0.505" fill="#ffffff" cx="14.5" cy="6.5"></circle><circle opacity="1" r="0.505" fill="#ffffff" cx="16.5" cy="6.5"></circle><circle opacity="1" r="0.505" fill="#ffffff" cx="18.5" cy="6.5"></circle><circle opacity="1" r="0.505" fill="#ffffff" cx="20.5" cy="6.5"></circle><circle opacity="1" r="0.505" fill="#ffffff" cx="9.5" cy="7.5"></circle><circle opacity="1" r="0.505" fill="#ffffff" cx="10.5" cy="7.5"></circle><circle opacity="1" r="0.505" fill="#ffffff" cx="11.5" cy="7.5"></circle><circle opacity="1" r="0.505" fill="#ffffff" cx="12.5" cy="7.5"></circle><circle opacity="1" r="0.505" fill="#ffffff" cx="16.5" cy="7.5"></circle><circle opacity="1" r="0.505" fill="#ffffff" cx="18.5" cy="7.5"></circle><circle opacity="1" r="0.505" fill="#ffffff" cx="19.5" cy="7.5"></circle><circle opacity="1" r="0.505" fill="#ffffff" cx="1.5" cy="8.5"></circle><circle opacity="1" r="0.505" fill="#ffffff" cx="4.5" cy="8.5"></circle><circle opacity="1" r="0.505" fill="#ffffff" cx="6.5" cy="8.5"></circle><circle opacity="1" r="0.505" fill="#ffffff" cx="10.5" cy="8.5"></circle><circle opacity="1" r="0.505" fill="#ffffff" cx="15.5" cy="8.5"></circle><circle opacity="1" r="0.505" fill="#ffffff" cx="16.5" cy="8.5"></circle><circle opacity="1" r="0.505" fill="#ffffff" cx="17.5" cy="8.5"></circle><circle opacity="1" r="0.505" fill="#ffffff" cx="21.5" cy="8.5"></circle><circle opacity="1" r="0.505" fill="#ffffff" cx="24.5" cy="8.5"></circle><circle opacity="1" r="0.505" fill="#ffffff" cx="26.5" cy="8.5"></circle><circle opacity="1" r="0.505" fill="#ffffff" cx="28.5" cy="8.5"></circle><circle opacity="1" r="0.505" fill="#ffffff" cx="0.5" cy="9.5"></circle><circle opacity="1" r="0.505" fill="#ffffff" cx="1.5" cy="9.5"></circle><circle opacity="1" r="0.505" fill="#ffffff" cx="2.5" cy="9.5"></circle><circle opacity="1" r="0.505" fill="#ffffff" cx="4.5" cy="9.5"></circle><circle opacity="1" r="0.505" fill="#ffffff" cx="5.5" cy="9.5"></circle><circle opacity="1" r="0.505" fill="#ffffff" cx="7.5" cy="9.5"></circle><circle opacity="1" r="0.505" fill="#ffffff" cx="10.5" cy="9.5"></circle><circle opacity="1" r="0.505" fill="#ffffff" cx="11.5" cy="9.5"></circle><circle opacity="1" r="0.505" fill="#ffffff" cx="12.5" cy="9.5"></circle><circle opacity="1" r="0.505" fill="#ffffff" cx="13.5" cy="9.5"></circle><circle opacity="1" r="0.505" fill="#ffffff" cx="14.5" cy="9.5"></circle><circle opacity="1" r="0.505" fill="#ffffff" cx="20.5" cy="9.5"></circle><circle opacity="1" r="0.505" fill="#ffffff" cx="21.5" cy="9.5"></circle><circle opacity="1" r="0.505" fill="#ffffff" cx="23.5" cy="9.5"></circle><circle opacity="1" r="0.505" fill="#ffffff" cx="27.5" cy="9.5"></circle><circle opacity="1" r="0.505" fill="#ffffff" cx="5.5" cy="10.5"></circle><circle opacity="1" r="0.505" fill="#ffffff" cx="6.5" cy="10.5"></circle><circle opacity="1" r="0.505" fill="#ffffff" cx="7.5" cy="10.5"></circle><circle opacity="1" r="0.505" fill="#ffffff" cx="9.5" cy="10.5"></circle><circle opacity="1" r="0.505" fill="#ffffff" cx="11.5" cy="10.5"></circle><circle opacity="1" r="0.505" fill="#ffffff" cx="12.5" cy="10.5"></circle><circle opacity="1" r="0.505" fill="#ffffff" cx="15.5" cy="10.5"></circle><circle opacity="1" r="0.505" fill="#ffffff" cx="16.5" cy="10.5"></circle><circle opacity="1" r="0.505" fill="#ffffff" cx="19.5" cy="10.5"></circle><circle opacity="1" r="0.505" fill="#ffffff" cx="20.5" cy="10.5"></circle><circle opacity="1" r="0.505" fill="#ffffff" cx="22.5" cy="10.5"></circle><circle opacity="1" r="0.505" fill="#ffffff" cx="24.5" cy="10.5"></circle><circle opacity="1" r="0.505" fill="#ffffff" cx="25.5" cy="10.5"></circle><circle opacity="1" r="0.505" fill="#ffffff" cx="26.5" cy="10.5"></circle><circle opacity="1" r="0.505" fill="#ffffff" cx="2.5" cy="11.5"></circle><circle opacity="1" r="0.505" fill="#ffffff" cx="3.5" cy="11.5"></circle><circle opacity="1" r="0.505" fill="#ffffff" cx="5.5" cy="11.5"></circle><circle opacity="1" r="0.505" fill="#ffffff" cx="9.5" cy="11.5"></circle><circle opacity="1" r="0.505" fill="#ffffff" cx="15.5" cy="11.5"></circle><circle opacity="1" r="0.505" fill="#ffffff" cx="18.5" cy="11.5"></circle><circle opacity="1" r="0.505" fill="#ffffff" cx="19.5" cy="11.5"></circle><circle opacity="1" r="0.505" fill="#ffffff" cx="20.5" cy="11.5"></circle><circle opacity="1" r="0.505" fill="#ffffff" cx="21.5" cy="11.5"></circle><circle opacity="1" r="0.505" fill="#ffffff" cx="23.5" cy="11.5"></circle><circle opacity="1" r="0.505" fill="#ffffff" cx="24.5" cy="11.5"></circle><circle opacity="1" r="0.505" fill="#ffffff" cx="26.5" cy="11.5"></circle><circle opacity="1" r="0.505" fill="#ffffff" cx="27.5" cy="11.5"></circle><circle opacity="1" r="0.505" fill="#ffffff" cx="3.5" cy="12.5"></circle><circle opacity="1" r="0.505" fill="#ffffff" cx="6.5" cy="12.5"></circle><circle opacity="1" r="0.505" fill="#ffffff" cx="7.5" cy="12.5"></circle><circle opacity="1" r="0.505" fill="#ffffff" cx="9.5" cy="12.5"></circle><circle opacity="1" r="0.505" fill="#ffffff" cx="10.5" cy="12.5"></circle><circle opacity="1" r="0.505" fill="#ffffff" cx="12.5" cy="12.5"></circle><circle opacity="1" r="0.505" fill="#ffffff" cx="15.5" cy="12.5"></circle><circle opacity="1" r="0.505" fill="#ffffff" cx="16.5" cy="12.5"></circle><circle opacity="1" r="0.505" fill="#ffffff" cx="19.5" cy="12.5"></circle><circle opacity="1" r="0.505" fill="#ffffff" cx="20.5" cy="12.5"></circle><circle opacity="1" r="0.505" fill="#ffffff" cx="21.5" cy="12.5"></circle><circle opacity="1" r="0.505" fill="#ffffff" cx="22.5" cy="12.5"></circle><circle opacity="1" r="0.505" fill="#ffffff" cx="25.5" cy="12.5"></circle><circle opacity="1" r="0.505" fill="#ffffff" cx="27.5" cy="12.5"></circle><circle opacity="1" r="0.505" fill="#ffffff" cx="28.5" cy="12.5"></circle><circle opacity="1" r="0.505" fill="#ffffff" cx="1.5" cy="13.5"></circle><circle opacity="1" r="0.505" fill="#ffffff" cx="3.5" cy="13.5"></circle><circle opacity="1" r="0.505" fill="#ffffff" cx="4.5" cy="13.5"></circle><circle opacity="1" r="0.505" fill="#ffffff" cx="9.5" cy="13.5"></circle><circle opacity="1" r="0.505" fill="#ffffff" cx="11.5" cy="13.5"></circle><circle opacity="1" r="0.505" fill="#ffffff" cx="14.5" cy="13.5"></circle><circle opacity="1" r="0.505" fill="#ffffff" cx="17.5" cy="13.5"></circle><circle opacity="1" r="0.505" fill="#ffffff" cx="19.5" cy="13.5"></circle><circle opacity="1" r="0.505" fill="#ffffff" cx="22.5" cy="13.5"></circle><circle opacity="1" r="0.505" fill="#ffffff" cx="26.5" cy="13.5"></circle><circle opacity="1" r="0.505" fill="#ffffff" cx="27.5" cy="13.5"></circle><circle opacity="1" r="0.505" fill="#ffffff" cx="28.5" cy="13.5"></circle><circle opacity="1" r="0.505" fill="#ffffff" cx="0.5" cy="14.5"></circle><circle opacity="1" r="0.505" fill="#ffffff" cx="5.5" cy="14.5"></circle><circle opacity="1" r="0.505" fill="#ffffff" cx="6.5" cy="14.5"></circle><circle opacity="1" r="0.505" fill="#ffffff" cx="10.5" cy="14.5"></circle><circle opacity="1" r="0.505" fill="#ffffff" cx="11.5" cy="14.5"></circle><circle opacity="1" r="0.505" fill="#ffffff" cx="12.5" cy="14.5"></circle><circle opacity="1" r="0.505" fill="#ffffff" cx="13.5" cy="14.5"></circle><circle opacity="1" r="0.505" fill="#ffffff" cx="18.5" cy="14.5"></circle><circle opacity="1" r="0.505" fill="#ffffff" cx="19.5" cy="14.5"></circle><circle opacity="1" r="0.505" fill="#ffffff" cx="20.5" cy="14.5"></circle><circle opacity="1" r="0.505" fill="#ffffff" cx="21.5" cy="14.5"></circle><circle opacity="1" r="0.505" fill="#ffffff" cx="27.5" cy="14.5"></circle><circle opacity="1" r="0.505" fill="#ffffff" cx="28.5" cy="14.5"></circle><circle opacity="1" r="0.505" fill="#ffffff" cx="2.5" cy="15.5"></circle><circle opacity="1" r="0.505" fill="#ffffff" cx="5.5" cy="15.5"></circle><circle opacity="1" r="0.505" fill="#ffffff" cx="7.5" cy="15.5"></circle><circle opacity="1" r="0.505" fill="#ffffff" cx="9.5" cy="15.5"></circle><circle opacity="1" r="0.505" fill="#ffffff" cx="10.5" cy="15.5"></circle><circle opacity="1" r="0.505" fill="#ffffff" cx="12.5" cy="15.5"></circle><circle opacity="1" r="0.505" fill="#ffffff" cx="13.5" cy="15.5"></circle><circle opacity="1" r="0.505" fill="#ffffff" cx="15.5" cy="15.5"></circle><circle opacity="1" r="0.505" fill="#ffffff" cx="17.5" cy="15.5"></circle><circle opacity="1" r="0.505" fill="#ffffff" cx="18.5" cy="15.5"></circle><circle opacity="1" r="0.505" fill="#ffffff" cx="20.5" cy="15.5"></circle><circle opacity="1" r="0.505" fill="#ffffff" cx="21.5" cy="15.5"></circle><circle opacity="1" r="0.505" fill="#ffffff" cx="23.5" cy="15.5"></circle><circle opacity="1" r="0.505" fill="#ffffff" cx="25.5" cy="15.5"></circle><circle opacity="1" r="0.505" fill="#ffffff" cx="26.5" cy="15.5"></circle><circle opacity="1" r="0.505" fill="#ffffff" cx="28.5" cy="15.5"></circle><circle opacity="1" r="0.505" fill="#ffffff" cx="3.5" cy="16.5"></circle><circle opacity="1" r="0.505" fill="#ffffff" cx="4.5" cy="16.5"></circle><circle opacity="1" r="0.505" fill="#ffffff" cx="5.5" cy="16.5"></circle><circle opacity="1" r="0.505" fill="#ffffff" cx="6.5" cy="16.5"></circle><circle opacity="1" r="0.505" fill="#ffffff" cx="8.5" cy="16.5"></circle><circle opacity="1" r="0.505" fill="#ffffff" cx="9.5" cy="16.5"></circle><circle opacity="1" r="0.505" fill="#ffffff" cx="10.5" cy="16.5"></circle><circle opacity="1" r="0.505" fill="#ffffff" cx="11.5" cy="16.5"></circle><circle opacity="1" r="0.505" fill="#ffffff" cx="16.5" cy="16.5"></circle><circle opacity="1" r="0.505" fill="#ffffff" cx="17.5" cy="16.5"></circle><circle opacity="1" r="0.505" fill="#ffffff" cx="18.5" cy="16.5"></circle><circle opacity="1" r="0.505" fill="#ffffff" cx="19.5" cy="16.5"></circle><circle opacity="1" r="0.505" fill="#ffffff" cx="24.5" cy="16.5"></circle><circle opacity="1" r="0.505" fill="#ffffff" cx="25.5" cy="16.5"></circle><circle opacity="1" r="0.505" fill="#ffffff" cx="26.5" cy="16.5"></circle><circle opacity="1" r="0.505" fill="#ffffff" cx="27.5" cy="16.5"></circle><circle opacity="1" r="0.505" fill="#ffffff" cx="5.5" cy="17.5"></circle><circle opacity="1" r="0.505" fill="#ffffff" cx="7.5" cy="17.5"></circle><circle opacity="1" r="0.505" fill="#ffffff" cx="8.5" cy="17.5"></circle><circle opacity="1" r="0.505" fill="#ffffff" cx="11.5" cy="17.5"></circle><circle opacity="1" r="0.505" fill="#ffffff" cx="12.5" cy="17.5"></circle><circle opacity="1" r="0.505" fill="#ffffff" cx="13.5" cy="17.5"></circle><circle opacity="1" r="0.505" fill="#ffffff" cx="15.5" cy="17.5"></circle><circle opacity="1" r="0.505" fill="#ffffff" cx="16.5" cy="17.5"></circle><circle opacity="1" r="0.505" fill="#ffffff" cx="19.5" cy="17.5"></circle><circle opacity="1" r="0.505" fill="#ffffff" cx="22.5" cy="17.5"></circle><circle opacity="1" r="0.505" fill="#ffffff" cx="25.5" cy="17.5"></circle><circle r="0.505" fill="#ffffff" cx="27.5" cy="17.5" opacity="1"></circle><circle opacity="1" r="0.505" fill="#ffffff" cx="2.5" cy="18.5"></circle><circle opacity="1" r="0.505" fill="#ffffff" cx="3.5" cy="18.5"></circle><circle opacity="1" r="0.505" fill="#ffffff" cx="5.5" cy="18.5"></circle><circle opacity="1" r="0.505" fill="#ffffff" cx="6.5" cy="18.5"></circle><circle fill="#ffffff" cx="7.5" cy="18.5" r="0.505" opacity="1"></circle><circle opacity="1" r="0.505" fill="#ffffff" cx="8.5" cy="18.5"></circle><circle opacity="1" r="0.505" fill="#ffffff" cx="11.5" cy="18.5"></circle><circle opacity="1" r="0.505" fill="#ffffff" cx="14.5" cy="18.5"></circle><circle opacity="1" r="0.505" fill="#ffffff" cx="15.5" cy="18.5"></circle><circle opacity="1" r="0.505" fill="#ffffff" cx="18.5" cy="18.5"></circle><circle opacity="1" r="0.505" fill="#ffffff" cx="19.5" cy="18.5"></circle><circle opacity="1" r="0.505" fill="#ffffff" cx="20.5" cy="18.5"></circle><circle opacity="1" r="0.505" fill="#ffffff" cx="26.5" cy="18.5"></circle><circle opacity="1" r="0.505" fill="#ffffff" cx="27.5" cy="18.5"></circle><circle opacity="1" r="0.505" fill="#ffffff" cx="28.5" cy="18.5"></circle><circle opacity="1" r="0.505" fill="#ffffff" cx="0.5" cy="19.5"></circle><circle opacity="1" r="0.505" fill="#ffffff" cx="1.5" cy="19.5"></circle><circle opacity="1" r="0.505" fill="#ffffff" cx="3.5" cy="19.5"></circle><circle opacity="1" r="0.505" fill="#ffffff" cx="4.5" cy="19.5"></circle><circle opacity="1" r="0.505" fill="#ffffff" cx="5.5" cy="19.5"></circle><circle opacity="1" r="0.505" fill="#ffffff" cx="8.5" cy="19.5"></circle><circle opacity="1" r="0.505" fill="#ffffff" cx="11.5" cy="19.5"></circle><circle opacity="1" r="0.505" fill="#ffffff" cx="12.5" cy="19.5"></circle><circle opacity="1" r="0.505" fill="#ffffff" cx="16.5" cy="19.5"></circle><circle opacity="1" r="0.505" fill="#ffffff" cx="19.5" cy="19.5"></circle><circle opacity="1" r="0.505" fill="#ffffff" cx="20.5" cy="19.5"></circle><circle opacity="1" r="0.505" fill="#ffffff" cx="21.5" cy="19.5"></circle><circle opacity="1" r="0.505" fill="#ffffff" cx="22.5" cy="19.5"></circle><circle opacity="1" r="0.505" fill="#ffffff" cx="26.5" cy="19.5"></circle><circle opacity="1" r="0.505" fill="#ffffff" cx="27.5" cy="19.5"></circle><circle opacity="1" r="0.505" fill="#ffffff" cx="28.5" cy="19.5"></circle><circle opacity="1" r="0.505" fill="#ffffff" cx="1.5" cy="20.5"></circle><circle opacity="1" r="0.505" fill="#ffffff" cx="5.5" cy="20.5"></circle><circle opacity="1" r="0.505" fill="#ffffff" cx="6.5" cy="20.5"></circle><circle opacity="1" r="0.505" fill="#ffffff" cx="7.5" cy="20.5"></circle><circle opacity="1" r="0.505" fill="#ffffff" cx="8.5" cy="20.5"></circle><circle opacity="1" r="0.505" fill="#ffffff" cx="9.5" cy="20.5"></circle><circle opacity="1" r="0.505" fill="#ffffff" cx="11.5" cy="20.5"></circle><circle opacity="1" r="0.505" fill="#ffffff" cx="12.5" cy="20.5"></circle><circle opacity="1" r="0.505" fill="#ffffff" cx="13.5" cy="20.5"></circle><circle opacity="1" r="0.505" fill="#ffffff" cx="15.5" cy="20.5"></circle><circle opacity="1" r="0.505" fill="#ffffff" cx="16.5" cy="20.5"></circle><circle opacity="1" r="0.505" fill="#ffffff" cx="19.5" cy="20.5"></circle><circle opacity="1" r="0.505" fill="#ffffff" cx="20.5" cy="20.5"></circle><circle opacity="1" r="0.505" fill="#ffffff" cx="21.5" cy="20.5"></circle><circle opacity="1" r="0.505" fill="#ffffff" cx="22.5" cy="20.5"></circle><circle opacity="1" r="0.505" fill="#ffffff" cx="23.5" cy="20.5"></circle><circle opacity="1" r="0.505" fill="#ffffff" cx="24.5" cy="20.5"></circle><circle opacity="1" r="0.505" fill="#ffffff" cx="25.5" cy="20.5"></circle><circle opacity="1" r="0.505" fill="#ffffff" cx="27.5" cy="20.5"></circle><circle opacity="1" r="0.505" fill="#ffffff" cx="28.5" cy="20.5"></circle><circle opacity="1" r="0.505" fill="#ffffff" cx="10.5" cy="21.5"></circle><circle opacity="1" r="0.505" fill="#ffffff" cx="12.5" cy="21.5"></circle><circle opacity="1" r="0.505" fill="#ffffff" cx="13.5" cy="21.5"></circle><circle opacity="1" r="0.505" fill="#ffffff" cx="15.5" cy="21.5"></circle><circle opacity="1" r="0.505" fill="#ffffff" cx="17.5" cy="21.5"></circle><circle opacity="1" r="0.505" fill="#ffffff" cx="18.5" cy="21.5"></circle><circle opacity="1" r="0.505" fill="#ffffff" cx="19.5" cy="21.5"></circle><circle opacity="1" r="0.505" fill="#ffffff" cx="20.5" cy="21.5"></circle><circle opacity="1" r="0.505" fill="#ffffff" cx="24.5" cy="21.5"></circle><circle opacity="1" r="0.505" fill="#ffffff" cx="27.5" cy="21.5"></circle><circle opacity="1" r="0.505" fill="#ffffff" cx="28.5" cy="21.5"></circle><circle opacity="1" r="0.505" fill="#ffffff" cx="9.5" cy="22.5"></circle><circle opacity="1" r="0.505" fill="#ffffff" cx="10.5" cy="22.5"></circle><circle opacity="1" r="0.505" fill="#ffffff" cx="12.5" cy="22.5"></circle><circle opacity="1" r="0.505" fill="#ffffff" cx="13.5" cy="22.5"></circle><circle opacity="1" r="0.505" fill="#ffffff" cx="14.5" cy="22.5"></circle><circle opacity="1" r="0.505" fill="#ffffff" cx="15.5" cy="22.5"></circle><circle opacity="1" r="0.505" fill="#ffffff" cx="16.5" cy="22.5"></circle><circle opacity="1" r="0.505" fill="#ffffff" cx="17.5" cy="22.5"></circle><circle opacity="1" r="0.505" fill="#ffffff" cx="19.5" cy="22.5"></circle><circle opacity="1" r="0.505" fill="#ffffff" cx="20.5" cy="22.5"></circle><circle opacity="1" r="0.505" fill="#ffffff" cx="22.5" cy="22.5"></circle><circle opacity="1" r="0.505" fill="#ffffff" cx="24.5" cy="22.5"></circle><circle opacity="1" r="0.505" fill="#ffffff" cx="11.5" cy="23.5"></circle><circle opacity="1" r="0.505" fill="#ffffff" cx="16.5" cy="23.5"></circle><circle opacity="1" r="0.505" fill="#ffffff" cx="18.5" cy="23.5"></circle><circle opacity="1" r="0.505" fill="#ffffff" cx="19.5" cy="23.5"></circle><circle opacity="1" r="0.505" fill="#ffffff" cx="20.5" cy="23.5"></circle><circle opacity="1" r="0.505" fill="#ffffff" cx="24.5" cy="23.5"></circle><circle opacity="1" r="0.505" fill="#ffffff" cx="25.5" cy="23.5"></circle><circle opacity="1" r="0.505" fill="#ffffff" cx="26.5" cy="23.5"></circle><circle opacity="1" r="0.505" fill="#ffffff" cx="28.5" cy="23.5"></circle><circle opacity="1" r="0.505" fill="#ffffff" cx="8.5" cy="24.5"></circle><circle opacity="1" r="0.505" fill="#ffffff" cx="10.5" cy="24.5"></circle><circle opacity="1" r="0.505" fill="#ffffff" cx="11.5" cy="24.5"></circle><circle opacity="1" r="0.505" fill="#ffffff" cx="14.5" cy="24.5"></circle><circle opacity="1" r="0.505" fill="#ffffff" cx="18.5" cy="24.5"></circle><circle r="0.505" fill="#ffffff" cx="19.5" cy="24.5" opacity="1"></circle><circle opacity="1" r="0.505" fill="#ffffff" cx="20.5" cy="24.5"></circle><circle opacity="1" r="0.505" fill="#ffffff" cx="21.5" cy="24.5"></circle><circle opacity="1" r="0.505" fill="#ffffff" cx="22.5" cy="24.5"></circle><circle opacity="1" r="0.505" fill="#ffffff" cx="23.5" cy="24.5"></circle><circle opacity="1" r="0.505" fill="#ffffff" cx="24.5" cy="24.5"></circle><circle r="0.505" fill="#ffffff" cx="25.5" cy="24.5" opacity="1"></circle><circle opacity="1" r="0.505" fill="#ffffff" cx="26.5" cy="24.5"></circle><circle opacity="1" r="0.505" fill="#ffffff" cx="27.5" cy="24.5"></circle><circle opacity="1" r="0.505" fill="#ffffff" cx="28.5" cy="24.5"></circle><circle fill="#ffffff" cx="3.5" cy="25.5" r="1.5"></circle><path d="M32.048565,-1.29480038e-15 L67.951435,1.29480038e-15 C79.0954192,-7.52316311e-16 83.1364972,1.16032014 87.2105713,3.3391588 C91.2846454,5.51799746 94.4820025,8.71535463 96.6608412,12.7894287 C98.8396799,16.8635028 100,20.9045808 100,32.048565 L100,67.951435 C100,79.0954192 98.8396799,83.1364972 96.6608412,87.2105713 C94.4820025,91.2846454 91.2846454,94.4820025 87.2105713,96.6608412 C83.1364972,98.8396799 79.0954192,100 67.951435,100 L32.048565,100 C20.9045808,100 16.8635028,98.8396799 12.7894287,96.6608412 C8.71535463,94.4820025 5.51799746,91.2846454 3.3391588,87.2105713 C1.16032014,83.1364972 5.01544207e-16,79.0954192 -8.63200256e-16,67.951435 L8.63200256e-16,32.048565 C-5.01544207e-16,20.9045808 1.16032014,16.8635028 3.3391588,12.7894287 C5.51799746,8.71535463 8.71535463,5.51799746 12.7894287,3.3391588 C16.8635028,1.16032014 20.9045808,7.52316311e-16 32.048565,-1.29480038e-15 Z" stroke="#ffffff" stroke-width="16.791666666666668" fill="none" transform="translate(0.5,22.5) scale(0.06,0.06)"></path><circle opacity="1" r="0.505" fill="#ffffff" cx="9.5" cy="25.5"></circle><circle opacity="1" r="0.505" fill="#ffffff" cx="12.5" cy="25.5"></circle><circle opacity="1" r="0.505" fill="#ffffff" cx="13.5" cy="25.5"></circle><circle opacity="1" r="0.505" fill="#ffffff" cx="14.5" cy="25.5"></circle><circle r="0.505" fill="#ffffff" cx="15.5" cy="25.5" opacity="1"></circle><circle opacity="1" r="0.505" fill="#ffffff" cx="16.5" cy="25.5"></circle><circle opacity="1" r="0.505" fill="#ffffff" cx="17.5" cy="25.5"></circle><circle opacity="1" r="0.505" fill="#ffffff" cx="19.5" cy="25.5"></circle><circle opacity="1" r="0.505" fill="#ffffff" cx="22.5" cy="25.5"></circle><circle r="0.505" fill="#ffffff" cx="23.5" cy="25.5" opacity="1"></circle><circle opacity="1" r="0.505" fill="#ffffff" cx="26.5" cy="25.5"></circle><circle r="0.505" fill="#ffffff" cx="10.5" cy="26.5" opacity="1"></circle><circle opacity="1" r="0.505" fill="#ffffff" cx="17.5" cy="26.5"></circle><circle opacity="1" r="0.505" fill="#ffffff" cx="21.5" cy="26.5"></circle><circle opacity="1" r="0.505" fill="#ffffff" cx="25.5" cy="26.5"></circle><circle opacity="1" r="0.505" fill="#ffffff" cx="8.5" cy="27.5"></circle><circle opacity="1" r="0.505" fill="#ffffff" cx="10.5" cy="27.5"></circle><circle opacity="1" r="0.505" fill="#ffffff" cx="11.5" cy="27.5"></circle><circle opacity="1" r="0.505" fill="#ffffff" cx="12.5" cy="27.5"></circle><circle opacity="1" r="0.505" fill="#ffffff" cx="14.5" cy="27.5"></circle><circle opacity="1" r="0.505" fill="#ffffff" cx="15.5" cy="27.5"></circle><circle opacity="1" r="0.505" fill="#ffffff" cx="16.5" cy="27.5"></circle><circle opacity="1" r="0.505" fill="#ffffff" cx="18.5" cy="27.5"></circle><circle opacity="1" r="0.505" fill="#ffffff" cx="19.5" cy="27.5"></circle><circle opacity="1" r="0.505" fill="#ffffff" cx="21.5" cy="27.5"></circle><circle opacity="1" r="0.505" fill="#ffffff" cx="22.5" cy="27.5"></circle><circle opacity="1" r="0.505" fill="#ffffff" cx="27.5" cy="27.5"></circle><circle opacity="1" r="0.505" fill="#ffffff" cx="28.5" cy="27.5"></circle><circle opacity="1" r="0.505" fill="#ffffff" cx="9.5" cy="28.5"></circle><circle opacity="1" r="0.505" fill="#ffffff" cx="10.5" cy="28.5"></circle><circle opacity="1" r="0.505" fill="#ffffff" cx="12.5" cy="28.5"></circle><circle opacity="1" r="0.505" fill="#ffffff" cx="13.5" cy="28.5"></circle><circle opacity="1" r="0.505" fill="#ffffff" cx="14.5" cy="28.5"></circle><circle opacity="1" r="0.505" fill="#ffffff" cx="16.5" cy="28.5"></circle><circle opacity="1" r="0.505" fill="#ffffff" cx="17.5" cy="28.5"></circle><circle opacity="1" r="0.505" fill="#ffffff" cx="18.5" cy="28.5"></circle><circle opacity="1" r="0.505" fill="#ffffff" cx="21.5" cy="28.5"></circle><circle opacity="1" r="0.505" fill="#ffffff" cx="22.5" cy="28.5"></circle><circle opacity="1" r="0.505" fill="#ffffff" cx="23.5" cy="28.5"></circle><circle opacity="1" r="0.505" fill="#ffffff" cx="26.5" cy="28.5"></circle><circle opacity="1" r="0.505" fill="#ffffff" cx="28.5" cy="28.5"></circle></svg>